<svg width="24" height="24" viewBox="0 0 24 24" fill="none" xmlns="http://www.w3.org/2000/svg">
<path d="M10.1299 22.257L9.53995 22.488C8.21695 23.058 6.92595 23.399 5.76795 23.423C4.60195 23.447 3.48195 23.145 2.66595 22.323C1.88895 21.544 1.57795 20.491 1.56995 19.386C1.56295 18.286 1.85195 17.064 2.35395 15.81C3.35795 13.298 5.28895 10.47 7.88395 7.88001C10.4779 5.29301 13.3049 3.36201 15.8149 2.35601C17.0679 1.85401 18.2889 1.56401 19.3879 1.57001C20.4929 1.57701 21.5479 1.88701 22.3259 2.66601C23.1459 3.48601 23.4479 4.60301 23.4249 5.77001C23.4009 6.93201 23.0559 8.22601 22.4829 9.55401L22.4789 9.56301L22.0149 10.61C22.1036 11.152 22.1479 11.7047 22.1479 12.268V13.734H19.7159L7.81495 13.846C8.08795 14.732 8.53395 15.488 9.12795 16.046C9.84395 16.722 10.7989 17.134 11.9999 17.134C13.0742 17.1382 14.1212 16.7963 14.9859 16.159L15.1189 16.061H21.4589L21.0969 16.785C21.0088 16.9628 20.9141 17.1373 20.8129 17.308C20.6029 17.6751 20.3698 18.0285 20.1149 18.366C19.1701 19.6284 17.9435 20.6528 16.533 21.3577C15.1224 22.0625 13.5668 22.4283 11.9899 22.426C11.3533 22.426 10.7333 22.3697 10.1299 22.257ZM12.9399 6.22501C11.6394 7.14175 10.4205 8.16924 9.29695 9.29601C9.05162 9.54067 8.81328 9.78701 8.58195 10.035H17.0619L16.8719 9.39201C16.4319 7.90601 14.8689 6.64301 12.9399 6.22501ZM3.70995 18.155C3.6197 18.5545 3.57276 18.9625 3.56995 19.372C3.57495 20.125 3.78195 20.61 4.08195 20.91L4.08495 20.913C4.39595 21.227 4.91195 21.44 5.72795 21.423C6.15095 21.415 6.63095 21.343 7.15795 21.207C5.79054 20.4656 4.61079 19.4213 3.70895 18.154M21.0549 7.68001C21.2929 6.94301 21.4129 6.28701 21.4249 5.72901C21.4409 4.91601 21.2289 4.39701 20.9109 4.07901C20.6109 3.77901 20.1269 3.57301 19.3759 3.56901C18.8809 3.56601 18.3029 3.65201 17.6539 3.83501C19.0969 4.80578 20.2676 6.12937 21.0549 7.68001ZM6.81995 6.81701C4.70395 8.93001 3.00995 11.21 1.88995 13.37C1.85062 13.0073 1.83095 12.64 1.83095 12.268C1.83095 6.65801 6.37995 2.11001 11.9899 2.11001C12.2959 2.11001 12.5983 2.12334 12.8969 2.15001C10.8829 3.26501 8.78095 4.86001 6.81995 6.81701Z" fill="#FF2400"/>
</svg>
